<svg width="14" height="22" viewBox="0 0 14 22" fill="none" xmlns="http://www.w3.org/2000/svg">
<path d="M13.3918 12.364C13.2526 12.0327 13.0873 11.7129 12.8975 11.4077V5.87952C12.8983 5.10694 12.7461 4.34184 12.4499 3.62833C12.1536 2.91481 11.719 2.26699 11.1712 1.72221C10.6266 1.17441 9.97874 0.740112 9.26512 0.444489C8.55149 0.148867 7.7863 -0.00220561 7.01387 2.43308e-05C6.24099 -0.00182597 5.47539 0.149407 4.76126 0.444994C4.04713 0.740582 3.39861 1.17467 2.85312 1.72221C2.30556 2.26697 1.87143 2.91487 1.57582 3.62845C1.28022 4.34204 1.12901 5.10714 1.13093 5.87952V6.68527H3.487V5.87952C3.487 4.94177 3.85206 4.05352 4.52168 3.38734C4.84829 3.05922 5.23672 2.79913 5.6645 2.62212C6.09228 2.44511 6.55092 2.35469 7.01387 2.35609C7.9481 2.35772 8.84363 2.72938 9.50449 3.38972C10.1653 4.05006 10.5377 4.9453 10.5401 5.87952V9.09909C9.4693 8.4608 8.24531 8.12528 6.99875 8.12834C6.08752 8.12651 5.18493 8.30495 4.34295 8.65337C3.50097 9.0018 2.73622 9.51333 2.09275 10.1585C1.4478 10.8021 0.936475 11.5669 0.588176 12.4089C0.239877 13.2509 0.0614795 14.1534 0.0632454 15.0645C0.0617371 15.9749 0.240271 16.8766 0.588573 17.7178C0.936875 18.5589 1.44807 19.3229 2.09275 19.9657C2.73633 20.611 3.50086 21.123 4.34257 21.4725C5.18429 21.822 6.08665 22.002 6.99803 22.0024C7.90941 22.0027 8.81191 21.8233 9.65386 21.4744C10.4958 21.1255 11.2607 20.614 11.9047 19.9691C12.5496 19.3256 13.0609 18.561 13.4092 17.7191C13.7575 16.8773 13.936 15.9749 13.9342 15.0638C13.9342 14.1288 13.7521 13.2193 13.3904 12.3633L13.3918 12.364ZM7.00012 19.644C4.47562 19.644 2.42068 17.589 2.42068 15.0645C2.42068 12.54 4.47562 10.4851 7.00012 10.4851C8.21438 10.486 9.37865 10.9688 10.2373 11.8274C11.0959 12.686 11.5786 13.8503 11.5796 15.0645C11.5779 16.2786 11.0949 17.4424 10.2365 18.3009C9.37801 19.1593 8.21416 19.6423 7.00012 19.644ZM8.96637 15.0858C8.96637 17.6743 5.08062 17.6743 5.08062 15.0858C5.08062 12.4933 8.96637 12.4933 8.96637 15.0858Z" fill="#646464"/>
</svg>
