<svg width="74" height="74" viewBox="0 0 74 74" fill="none" xmlns="http://www.w3.org/2000/svg">
<path d="M37 74C57.4345 74 74 57.4345 74 37C74 16.5655 57.4345 0 37 0C16.5655 0 0 16.5655 0 37C0 57.4345 16.5655 74 37 74Z" fill="#1472BA"/>
<path d="M18.5 38.8501H55.5" stroke="white" stroke-linecap="round" stroke-linejoin="round"/>
<path d="M22.2 27.75H51.8" stroke="white" stroke-linecap="round" stroke-linejoin="round"/>
<path d="M22.2 48.1001H51.8" stroke="white" stroke-linecap="round" stroke-linejoin="round"/>
<path d="M37 55.5C47.2172 55.5 55.5 47.2172 55.5 37C55.5 26.7828 47.2172 18.5 37 18.5C26.7828 18.5 18.5 26.7828 18.5 37C18.5 47.2172 26.7828 55.5 37 55.5Z" stroke="white" stroke-linecap="round" stroke-linejoin="round"/>
<path d="M37.0001 18.5C41.6275 23.566 44.2573 30.1402 44.4001 37C44.2573 43.8598 41.6275 50.434 37.0001 55.5C32.3727 50.434 29.7429 43.8598 29.6001 37C29.7429 30.1402 32.3727 23.566 37.0001 18.5Z" stroke="white" stroke-linecap="round" stroke-linejoin="round"/>
</svg>
