<svg width="58" height="58" viewBox="0 0 58 58" fill="none" xmlns="http://www.w3.org/2000/svg">
<path d="M23.4392 10.2222C23.5856 10.5203 23.6823 10.8394 23.7256 11.1676L24.5261 23.0698L24.9235 29.0522C24.9276 29.6674 25.0241 30.2786 25.2099 30.8662C25.6898 32.0062 26.8443 32.7307 28.1004 32.6802L47.2401 31.4283C48.0689 31.4146 48.8693 31.7246 49.4651 32.29C49.9616 32.7612 50.2821 33.3776 50.3831 34.0405L50.417 34.4431C49.625 45.4104 41.5701 54.558 30.6255 56.9193C19.681 59.2807 8.45786 54.2924 3.04954 44.6629C1.49036 41.8653 0.516495 38.7903 0.185098 35.6184C0.0466572 34.6794 -0.0143017 33.731 0.00281527 32.7824C-0.0142771 21.0242 8.35898 10.8588 20.08 8.40821C21.4906 8.18855 22.8736 8.93535 23.4392 10.2222Z" fill="#1472BA"/>
<path opacity="0.4" d="M31.2291 0.501857L31.2291 0.501949L31.2387 0.502193C44.0775 0.828823 54.8628 10.0334 56.9883 22.4324L56.9618 22.4948L56.9198 22.5937L56.9221 22.7011L56.9297 23.0532C56.9026 23.433 56.7539 23.7989 56.4992 24.0965C56.2326 24.4079 55.8681 24.6227 55.4644 24.709L55.1844 24.7474L33.12 26.177L33.1116 26.1776L33.1033 26.1784C32.5065 26.2373 31.914 26.0445 31.4731 25.6512C31.1103 25.3276 30.8783 24.8937 30.8094 24.4274L29.3285 2.39602L29.324 2.32929L29.3189 2.31458L29.3269 2.29173L29.3294 2.21626C29.3451 1.74521 29.5524 1.29777 29.9085 0.974711C30.2649 0.651341 30.7404 0.48003 31.2291 0.501857Z" fill="#1472BA" stroke="white"/>
</svg>
