<svg width="74" height="74" viewBox="0 0 74 74" fill="none" xmlns="http://www.w3.org/2000/svg">
<path d="M37 74.0001C57.4345 74.0001 74 57.4346 74 37.0001C74 16.5656 57.4345 0 37 0C16.5655 0 0 16.5656 0 37.0001C0 57.4346 16.5655 74.0001 37 74.0001Z" fill="#1472BA"/>
<path d="M43.1305 73.479C43.1837 73.4731 43.2369 73.4671 43.2901 73.461C44.5053 73.2512 45.7092 72.9809 46.8974 72.651C48.0864 72.3213 49.2581 71.9324 50.4083 71.4857C51.5579 71.0384 52.6845 70.5339 53.7837 69.9741C54.8826 69.4147 55.9529 68.8007 56.9905 68.1344C58.0284 67.4683 59.0323 66.7508 59.9985 65.9845C60.9651 65.2173 61.8926 64.4023 62.7777 63.5425C63.6624 62.6828 64.5036 61.7793 65.298 60.8356C66.0934 59.8919 66.8411 58.9091 67.5382 57.8907C68.2348 56.8727 68.8799 55.8206 69.4714 54.7381C70.0625 53.6556 70.5991 52.5441 71.0793 51.4079C71.5595 50.2715 71.9826 49.1118 72.3469 47.9331C72.5659 47.1777 72.7607 46.4155 72.9311 45.6477L41.3841 14.1008C41.2859 14.0021 41.1605 13.9328 41.0258 13.899C40.8929 13.8656 40.7507 13.8697 40.6193 13.9141L40.6133 13.9081C40.3726 13.9873 40.1842 14.1963 40.1134 14.438C40.0906 14.516 40.0793 14.5973 40.0833 14.6789C40.0834 14.6809 40.0832 14.6829 40.0833 14.6849V15.9074L38.3188 14.1429C38.1736 13.998 37.9767 13.9051 37.7708 13.9081H17.7292C17.6495 13.8926 17.5679 13.8926 17.4883 13.9081C17.2476 13.9873 17.0592 14.1963 16.9884 14.438C16.9656 14.516 16.9543 14.5973 16.9583 14.6789C16.9584 14.6809 16.9582 14.6829 16.9583 14.6849V47.0057V47.0117C16.9592 47.1106 16.9816 47.2084 17.0216 47.2978C17.0659 47.399 17.1332 47.4865 17.2143 47.5628L43.1305 73.479Z" fill="#06B4D7"/>
<path d="M17.4893 13.9072C17.1709 14.012 16.9427 14.3435 16.9593 14.678V47.0049C16.9594 47.4086 17.3266 47.7756 17.7302 47.7758H21.1989H21.247L22.0179 47.8236L27.9436 53.7494C28.3592 54.2208 29.3091 53.848 29.2926 53.2194V47.8236L34.6884 47.7758H39.6989H45.4801C45.8837 47.7756 46.2509 47.4086 46.2509 47.0049V42.7654V40.8865V25.4216V22.3864C46.2571 21.9792 45.8874 21.6046 45.4801 21.6046C45.0728 21.6046 44.7035 21.9792 44.7093 22.3864V25.4216V40.8865V42.7654V46.2341H39.6989H34.6884L28.5218 46.2819C28.1182 46.2819 27.751 46.6491 27.7509 47.0527V51.3405L22.8851 46.4746C22.7408 46.3467 22.5475 46.277 22.3551 46.2819L21.247 46.2341H18.5009V15.4489H37.7718C38.179 15.4489 38.5536 15.0853 38.5536 14.678C38.5536 14.2707 38.179 13.9015 37.7718 13.9072H17.7301C17.6504 13.8918 17.5689 13.8918 17.4892 13.9072H17.4893ZM40.6143 13.9072C40.2959 14.012 40.0677 14.3435 40.0843 14.678V19.303C40.0844 19.7066 40.4516 20.0739 40.8552 20.0739H45.4802C46.1083 20.0908 46.4815 19.1404 46.0101 18.7249L41.3851 14.0999C41.1886 13.903 40.8804 13.8259 40.6143 13.9072ZM41.626 16.5088L43.6495 18.5322H41.626V16.5088ZM21.5843 18.5322V20.0739H35.4593V18.5322H21.5843ZM21.5843 23.1572V24.6989H41.626V23.1572H21.5843ZM21.5843 27.7822V29.3239H41.626V27.7822H21.5843ZM21.5843 32.4073V33.949H41.626V32.4073H21.5843ZM21.5843 37.0323V38.574H41.626V37.0323H21.5843ZM21.5843 41.6573V43.199H29.2927V41.6573H21.5843ZM57.2836 53.7979L47.6963 53.8457L38.0609 53.8935C38.0288 53.892 37.9966 53.892 37.9646 53.8935C37.9325 53.892 37.9003 53.892 37.8682 53.8935C37.77 53.9552 37.5791 54.0862 37.5791 54.0862L29.919 57.8922C29.3908 58.1387 29.3908 59.0428 29.919 59.2894L37.4828 62.999C37.4828 62.999 37.7377 63.1583 37.8682 63.2399C37.9003 63.2399 37.9325 63.2399 37.9646 63.2399C37.9966 63.2399 38.0288 63.2399 38.0609 63.2399L47.7445 63.1921L57.1872 63.1443C57.251 63.1443 57.3161 63.1443 57.3799 63.1443C57.412 63.1458 57.4442 63.1458 57.4763 63.1443H60.3187C62.3534 63.1443 63.9876 61.4662 63.9802 59.4346V57.4594C63.9725 55.4219 62.2878 53.7905 60.2705 53.7979H57.3799C57.3639 53.7975 57.3479 53.7975 57.3318 53.7979C57.3158 53.7975 57.2998 53.7975 57.2837 53.7979H57.2836ZM56.5609 55.3396L56.609 57.7966L38.8317 57.7488V55.4363L47.6963 55.3885L56.5609 55.3396ZM58.1026 55.3396H60.2705C61.4503 55.3396 62.434 56.2612 62.4385 57.4594V59.4346C62.4431 60.6388 61.5191 61.6026 60.3187 61.6026H58.1508L58.1026 55.3396ZM37.2901 55.9177V58.5674V61.169L32.0388 58.5674L37.2901 55.9177ZM38.8317 59.2901L56.6091 59.3379V61.6022L47.7445 61.65L38.8317 61.6978V59.2901Z" fill="white"/>
</svg>
